<?xml version="1.0" encoding="UTF-8" ?>
<!DOCTYPE svg PUBLIC "-//W3C//DTD SVG 1.1//EN" "http://www.w3.org/Graphics/SVG/1.1/DTD/svg11.dtd">
<svg width="488pt" height="366pt" viewBox="0 0 488 366" version="1.1" xmlns="http://www.w3.org/2000/svg">
<path fill="#ffffff" d=" M 0.00 0.00 L 488.00 0.00 L 488.00 366.00 L 0.00 366.00 L 0.00 0.00 Z" />
<path fill="#17191a" d=" M 48.70 130.76 C 52.78 126.58 56.33 121.76 60.96 118.20 C 69.90 118.20 78.56 120.94 87.09 123.31 C 101.60 127.31 115.68 132.82 129.12 139.56 C 136.29 143.46 143.45 147.79 148.82 154.05 C 151.87 157.63 153.97 162.62 152.25 167.29 C 149.42 175.24 141.89 180.05 135.03 184.26 C 118.52 193.91 100.39 200.62 81.86 205.22 C 74.81 206.78 67.83 209.29 60.52 209.05 C 50.24 197.80 39.60 186.71 31.32 173.85 C 28.75 169.49 25.64 164.16 28.11 159.06 C 32.94 148.32 41.18 139.65 48.70 130.76 Z" />
<path fill="#17191a" d=" M 163.11 130.79 C 165.39 128.62 167.39 126.10 169.93 124.23 C 176.59 124.07 183.26 124.06 189.91 124.24 C 192.01 124.23 192.64 126.44 193.36 127.99 C 193.37 126.70 193.40 125.42 193.45 124.14 C 197.09 124.14 200.74 124.10 204.38 124.26 C 204.66 129.63 204.57 135.01 204.46 140.38 C 200.98 140.37 197.48 140.65 194.02 140.25 C 192.12 138.91 190.68 137.07 189.15 135.37 C 184.92 135.27 180.68 135.27 176.45 135.40 L 176.59 136.19 C 176.26 136.55 175.60 137.28 175.27 137.64 L 174.45 137.53 C 174.25 141.75 174.29 145.97 174.34 150.18 C 175.00 151.03 175.66 151.88 176.32 152.74 C 182.71 153.34 189.20 152.36 195.55 153.30 C 198.86 155.75 201.47 159.02 204.46 161.83 C 204.63 170.08 204.53 178.33 204.52 186.58 L 203.46 186.56 C 203.41 186.85 203.32 187.45 203.27 187.75 C 202.15 188.77 201.06 189.83 200.03 190.94 C 197.48 193.72 193.39 192.36 190.06 192.67 C 184.85 192.35 179.37 193.58 174.40 191.50 C 174.32 191.02 174.17 190.07 174.09 189.60 C 173.97 190.36 173.74 191.89 173.62 192.65 C 170.05 192.68 166.47 192.78 162.92 192.35 C 162.93 187.13 162.89 181.91 162.96 176.69 C 166.41 176.62 169.86 176.63 173.31 176.62 C 175.07 178.23 176.78 179.90 178.47 181.58 C 182.46 181.65 186.44 181.64 190.43 181.61 C 191.40 180.64 192.38 179.67 193.36 178.70 C 193.39 174.80 193.41 170.91 193.35 167.01 C 192.52 166.14 191.70 165.26 190.88 164.38 C 184.78 164.27 178.69 164.25 172.59 164.39 C 169.29 161.83 166.55 158.66 163.41 155.92 C 162.36 147.59 163.47 139.16 163.11 130.79 Z" />
<path fill="#17191a" d=" M 330.69 124.14 C 336.00 124.15 341.30 124.10 346.60 124.18 C 346.86 127.87 346.85 131.57 346.61 135.26 C 344.95 135.30 343.31 135.36 341.67 135.43 C 341.66 150.79 341.68 166.15 341.66 181.51 C 343.15 181.57 344.64 181.62 346.14 181.68 C 346.44 182.22 347.03 183.32 347.33 183.86 C 347.30 186.74 347.30 189.62 347.31 192.51 C 341.75 192.72 336.18 192.87 330.64 192.37 C 330.50 191.71 330.22 190.37 330.08 189.71 C 329.89 190.41 329.52 191.82 329.33 192.52 C 322.47 192.77 315.60 192.71 308.74 192.58 C 306.52 190.14 303.61 188.18 302.04 185.24 C 301.87 174.15 301.77 163.02 302.09 151.94 C 303.54 148.94 306.72 147.00 308.89 144.46 C 314.29 144.41 319.69 144.39 325.09 144.42 C 326.61 144.28 327.99 144.95 329.33 145.57 C 329.61 146.15 330.15 147.30 330.43 147.88 C 330.90 139.98 330.53 132.06 330.69 124.14 Z" />
<path fill="#17191a" d=" M 349.46 124.14 C 361.90 124.22 374.36 123.98 386.80 124.25 C 389.81 125.83 391.79 128.92 394.42 131.07 C 394.69 139.80 394.50 148.53 394.52 157.26 C 393.32 158.49 392.12 159.73 390.91 160.95 C 390.25 161.74 389.61 162.53 388.98 163.33 C 381.38 165.41 373.34 163.75 365.55 164.38 C 365.54 170.09 365.56 175.81 365.54 181.52 C 367.13 181.59 368.71 181.66 370.31 181.73 C 370.62 185.34 370.56 188.97 370.53 192.59 C 363.49 192.61 356.42 192.96 349.39 192.36 C 349.34 188.81 349.35 185.26 349.43 181.71 C 351.07 181.66 352.72 181.62 354.37 181.58 C 354.39 166.15 354.42 150.71 354.43 135.27 C 353.68 135.31 352.19 135.38 351.44 135.42 L 351.47 134.51 C 350.97 134.52 349.96 134.53 349.45 134.54 C 349.42 131.07 349.44 127.60 349.46 124.14 Z" />
<path fill="#17191a" d=" M 425.46 124.14 C 430.77 124.15 436.08 124.11 441.40 124.16 C 441.95 130.89 441.55 137.64 441.66 144.38 C 444.90 144.42 448.14 144.41 451.38 144.45 C 451.76 148.13 451.69 151.83 451.59 155.53 C 448.30 155.54 445.00 155.54 441.71 155.62 C 441.62 164.26 441.70 172.90 441.66 181.54 C 446.62 181.70 451.59 181.59 456.56 181.65 C 456.89 185.29 456.86 188.96 456.78 192.61 C 451.45 192.67 446.12 192.77 440.80 192.52 C 437.42 189.03 433.87 185.69 430.62 182.07 C 430.61 173.23 430.70 164.39 430.58 155.54 C 427.22 155.57 423.86 155.58 420.50 155.34 C 420.37 151.72 420.39 148.09 420.47 144.47 C 423.86 144.41 427.25 144.41 430.65 144.42 C 430.65 141.37 430.65 138.31 430.63 135.25 C 429.84 135.29 428.24 135.38 427.44 135.42 L 427.47 134.52 C 426.96 134.52 425.96 134.53 425.45 134.53 C 425.42 131.07 425.44 127.60 425.46 124.14 Z" />
<path fill="#ffffff" d=" M 65.35 127.86 C 70.99 128.96 76.34 131.15 81.56 133.50 C 91.42 137.86 101.16 142.71 109.80 149.23 C 113.93 152.41 118.12 156.10 119.89 161.17 C 121.01 164.97 119.23 168.87 116.73 171.69 C 111.52 177.70 104.60 181.85 97.77 185.74 C 88.64 190.54 79.31 195.01 69.53 198.32 C 68.12 198.72 66.68 199.29 65.20 199.12 C 61.04 195.49 57.56 191.14 53.90 187.02 C 48.61 180.54 42.67 174.28 39.41 166.45 C 37.59 162.20 40.23 157.96 42.41 154.44 C 48.86 144.63 56.96 136.03 65.35 127.86 Z" />
<path fill="#17191a" d=" M 402.11 129.26 C 405.46 129.31 408.82 129.08 412.16 129.40 C 412.38 129.88 412.82 130.84 413.04 131.32 L 413.36 131.43 C 413.30 134.15 413.30 136.88 413.30 139.61 C 409.59 139.86 405.86 139.88 402.15 139.59 C 402.09 136.15 402.12 132.70 402.11 129.26 Z" />
<path fill="#ffffff" d=" M 365.67 134.81 C 370.25 134.77 374.83 134.82 379.41 134.75 L 379.69 135.01 C 380.94 135.94 382.15 136.92 383.36 137.90 C 383.45 141.88 383.42 145.87 383.40 149.85 C 382.25 150.85 381.23 152.03 379.93 152.81 C 375.13 153.09 370.32 152.90 365.52 152.82 C 365.62 146.82 365.42 140.81 365.67 134.81 Z" />
<path fill="#17191a" d=" M 220.73 144.45 C 227.51 144.39 234.29 144.44 241.07 144.42 C 243.63 146.74 246.07 149.19 248.49 151.67 C 248.61 165.30 248.53 178.95 248.53 192.59 C 244.94 192.57 241.26 193.07 237.73 192.22 C 237.48 191.67 236.96 190.58 236.71 190.03 C 236.61 190.85 236.50 191.66 236.39 192.47 C 228.90 192.73 221.38 192.87 213.90 192.47 C 211.43 190.52 209.16 188.27 207.24 185.79 C 206.60 181.21 206.90 176.49 207.06 171.88 C 209.36 168.55 212.89 166.25 215.59 163.24 C 221.88 163.16 228.18 163.19 234.47 163.22 C 235.62 161.85 236.73 160.45 237.81 159.03 C 236.72 157.85 235.62 156.69 234.51 155.55 C 230.71 155.55 226.91 155.50 223.12 155.64 C 221.68 157.13 220.21 158.58 218.71 160.00 L 218.58 160.51 C 214.80 160.56 211.02 160.61 207.25 160.39 C 206.74 155.10 206.93 149.78 206.96 144.48 C 210.44 144.40 213.91 144.41 217.39 144.42 C 217.50 145.07 217.72 146.35 217.83 147.00 C 218.80 146.15 219.77 145.30 220.73 144.45 Z" />
<path fill="#17191a" d=" M 269.91 144.47 C 275.60 144.39 281.30 144.39 286.99 144.46 C 289.52 148.14 292.27 151.72 294.28 155.71 C 294.64 164.28 294.34 172.87 294.41 181.45 C 295.97 181.57 297.56 181.62 299.11 181.92 C 299.71 185.43 299.35 189.01 299.42 192.55 C 292.34 192.64 285.23 192.97 278.17 192.34 C 278.12 188.79 278.14 185.25 278.20 181.71 C 279.85 181.66 281.50 181.62 283.16 181.57 C 283.16 172.90 283.21 164.23 283.19 155.56 C 279.58 155.54 275.96 155.56 272.35 155.51 L 272.32 156.52 L 271.20 156.46 C 269.99 157.73 268.74 158.98 267.46 160.18 C 267.14 167.31 267.38 174.46 267.31 181.60 C 268.73 181.62 270.14 181.64 271.56 181.66 C 271.90 185.30 271.85 188.96 271.78 192.61 C 264.83 192.58 257.85 192.99 250.92 192.35 C 250.92 188.79 250.91 185.24 250.96 181.70 C 252.61 181.66 254.26 181.63 255.92 181.61 C 255.88 172.94 256.02 164.26 255.84 155.59 C 254.30 155.52 252.76 155.44 251.23 155.35 C 250.89 151.72 250.85 148.08 251.10 144.44 C 256.09 144.49 261.09 144.23 266.08 144.55 C 266.34 145.10 266.85 146.20 267.11 146.76 C 268.04 145.99 268.97 145.23 269.91 144.47 Z" />
<path fill="#17191a" d=" M 397.10 144.44 C 402.47 144.48 407.85 144.21 413.21 144.66 C 413.43 156.97 413.25 169.28 413.31 181.60 C 414.72 181.61 416.14 181.64 417.57 181.66 C 417.90 185.30 417.85 188.96 417.78 192.61 C 410.83 192.58 403.85 192.98 396.92 192.35 C 396.92 188.79 396.91 185.24 396.96 181.70 C 398.61 181.66 400.26 181.63 401.92 181.61 C 401.89 172.93 402.01 164.26 401.84 155.58 C 400.30 155.52 398.77 155.45 397.25 155.37 C 396.87 151.73 396.85 148.08 397.10 144.44 Z" />
<path fill="#ffffff" d=" M 316.00 155.63 C 319.87 155.50 323.75 155.55 327.62 155.55 C 328.60 156.49 329.59 157.43 330.58 158.37 C 330.70 165.12 330.61 171.88 330.63 178.64 C 329.63 179.63 328.64 180.63 327.64 181.62 C 323.63 181.63 319.61 181.65 315.59 181.57 C 314.84 180.80 314.09 180.04 313.34 179.28 C 313.34 172.80 313.20 166.32 313.37 159.84 C 313.32 158.05 315.14 157.03 316.00 155.63 Z" />
<path fill="#ffffff" d=" M 221.03 174.40 C 226.61 174.28 232.19 174.20 237.77 174.44 C 237.49 177.64 234.71 179.49 232.69 181.62 C 228.57 181.63 224.46 181.64 220.35 181.58 C 219.31 180.26 218.29 178.90 218.25 177.15 C 218.95 176.46 220.33 175.09 221.03 174.40 Z" />
</svg>
